<?xml version="1.0" standalone="no"?>
<!DOCTYPE svg PUBLIC "-//W3C//DTD SVG 20010904//EN"
 "http://www.w3.org/TR/2001/REC-SVG-20010904/DTD/svg10.dtd">
<svg version="1.0" xmlns="http://www.w3.org/2000/svg"
 width="626.000000pt" height="626.000000pt" viewBox="0 0 626.000000 626.000000"
 preserveAspectRatio="xMidYMid meet">

<g transform="translate(0.000000,626.000000) scale(0.100000,-0.100000)"
fill="#000000" stroke="none">
<path d="M2853 5187 l-573 -582 0 -980 0 -980 85 85 85 85 0 855 0 854 400
401 400 400 0 -1030 0 -1030 95 -83 95 -83 0 408 1 408 285 -290 286 -290 1
-379 2 -378 93 -85 92 -86 0 504 0 504 -380 380 -380 380 0 797 c0 439 -3 798
-7 797 -5 0 -266 -262 -580 -582z"/>
<path d="M2853 4812 l-343 -350 0 -258 0 -259 345 345 345 346 -2 263 -3 263
-342 -350z"/>
<path d="M2853 4091 l-343 -349 0 -259 0 -258 345 345 345 345 -2 263 -3 262
-342 -349z"/>
<path d="M1962 3737 l-222 -222 0 -710 0 -710 85 85 85 85 0 585 0 585 135
140 134 140 1 90 c1 50 2 105 3 123 1 17 2 32 2 32 0 0 -100 -100 -223 -223z"/>
<path d="M2310 2590 l-755 -749 -353 2 -352 2 0 -95 0 -95 407 3 408 2 710
710 710 710 215 -193 c118 -107 473 -426 789 -710 l575 -517 373 -2 373 -3 0
95 0 95 -340 -3 -339 -3 -313 283 c-172 155 -479 433 -683 617 -203 183 -436
394 -517 467 -80 74 -148 134 -150 134 -1 -1 -343 -338 -758 -750z"/>
<path d="M1428 2686 l-218 -221 0 -292 0 -293 85 0 85 0 0 254 0 255 140 144
140 145 0 116 c0 64 -3 115 -7 115 -5 -1 -106 -101 -225 -223z"/>
<path d="M2830 2110 l0 -130 130 0 130 0 0 130 0 130 -130 0 -130 0 0 -130z"/>
<path d="M3170 2110 l0 -130 130 0 130 0 0 130 0 130 -130 0 -130 0 0 -130z"/>
<path d="M2830 1760 l0 -130 130 0 130 0 0 130 0 130 -130 0 -130 0 0 -130z"/>
<path d="M3170 1760 l0 -130 130 0 130 0 0 130 0 130 -130 0 -130 0 0 -130z"/>
<path d="M2662 1199 c-107 -18 -208 -96 -255 -197 -19 -40 -22 -65 -22 -162 0
-106 2 -119 28 -168 126 -240 469 -258 605 -32 45 75 55 120 50 226 -3 73 -9
101 -31 146 -46 94 -146 171 -239 183 -23 4 -52 8 -63 9 -11 2 -44 -1 -73 -5z
m140 -195 c96 -49 118 -200 42 -284 -108 -119 -284 -45 -284 118 0 139 125
225 242 166z"/>
<path d="M1645 844 l0 -343 60 -3 c33 -2 77 -2 98 0 l37 3 0 135 0 135 128 -3
127 -3 0 -130 0 -130 100 -3 100 -3 -1 343 -2 343 -97 1 -97 1 3 -119 c3 -97
1 -120 -11 -128 -19 -12 -230 -13 -248 -1 -11 7 -12 33 -7 128 l7 119 -99 1
-99 0 1 -343z"/>
<path d="M3136 1170 c-5 -16 -19 -133 -17 -139 1 -2 38 -3 83 -2 l81 2 -5
-265 -6 -264 48 -7 c27 -4 73 -4 102 0 l54 7 -4 269 -5 269 81 -7 81 -6 -2 79
-2 79 -243 0 c-207 0 -243 -2 -246 -15z"/>
<path d="M3693 990 c3 -107 3 -260 -1 -338 -4 -79 -5 -145 -2 -147 3 -2 110
-4 239 -6 l235 -4 7 29 c5 16 9 54 11 84 l3 54 -142 -2 c-134 -1 -142 0 -153
20 -6 12 -10 35 -8 53 l3 32 130 1 c71 1 130 5 131 10 1 5 4 42 7 82 l4 72
-133 0 c-133 0 -134 0 -140 24 -3 13 -4 35 -2 47 3 24 4 24 146 24 l142 0 -1
55 c-1 30 -4 66 -8 80 l-7 25 -233 0 -234 0 6 -195z"/>
<path d="M4265 1180 c-1 -3 0 -156 3 -341 l5 -336 105 -7 c58 -3 162 -6 232
-6 l127 0 7 38 c3 20 6 59 6 85 l0 48 -152 -7 -151 -7 6 269 7 269 -96 0 c-53
0 -97 -2 -99 -5z"/>
</g>
</svg>
